<?xml version="1.0" encoding="utf-8"?>
<!-- Generator: Adobe Illustrator 21.1.0, SVG Export Plug-In . SVG Version: 6.00 Build 0)  -->
<svg version="1.1" id="Layer_1" xmlns="http://www.w3.org/2000/svg" xmlns:xlink="http://www.w3.org/1999/xlink" x="0px" y="0px"
	 viewBox="0 0 500 500" style="enable-background:new 0 0 500 500;" xml:space="preserve">
<g>
	<g>
		<path d="M251.1,58.6L60.6,249.2l190.5,190.5l190.5-190.5L251.1,58.6z M207.3,300l-18.7-49.5l0.2,49.6l-13.6,0l-0.4-101.2l18-0.1
			c7.4,0,13,1.7,16.6,5.3c4.6,4.6,6.9,11.6,7,21c0,7.3-1.2,13.1-3.6,17.5c-2.4,4.4-5.9,7.1-10.4,8.2l18.8,49.2L207.3,300z
			 M253.7,365.3h-5.3V133.1h5.3V365.3z M290.8,198.4l36.3-0.1l0,11.5l-22.6,0.1l0.1,32.1l20.1-0.1l0,11.5l-20.1,0.1l0.1,34.6
			l22.6-0.1l0,11.5l-36.3,0.1L290.8,198.4z"/>
		<path d="M202.3,219.5c-0.5-2.2-1.2-4-2.2-5.4c-1-1.4-2.3-2.4-3.8-3.1c-1.6-0.7-3.4-1-5.5-1l-2.3,0l0.1,33.6c5.3,0,9-1.3,11.2-3.7
			c2.2-2.5,3.3-6.6,3.2-12.4C203,224.4,202.7,221.7,202.3,219.5z"/>
	</g>
	<path d="M251.1,490.4L9.9,249.2L251.1,8l241.2,241.2L251.1,490.4z M33.7,249.2l217.4,217.4l217.4-217.4L251.1,31.8L33.7,249.2z"/>
</g>
</svg>
